<?xml version="1.0" encoding="utf-8"?>
<!-- Generator: Adobe Illustrator 16.0.0, SVG Export Plug-In . SVG Version: 6.00 Build 0)  -->
<!DOCTYPE svg PUBLIC "-//W3C//DTD SVG 1.1//EN" "http://www.w3.org/Graphics/SVG/1.1/DTD/svg11.dtd">
<svg version="1.1" id="Layer_1" xmlns="http://www.w3.org/2000/svg" xmlns:xlink="http://www.w3.org/1999/xlink" x="0px" y="0px"
	 width="218.439px" height="218.51px" viewBox="0 0 218.439 218.51" enable-background="new 0 0 218.439 218.51"
	 xml:space="preserve">
<g>
	<path fill-rule="evenodd" clip-rule="evenodd" fill="#E7E3D8" d="M80.907,0.04c2.121-0.088,4.917-0.041,7.691,0.272
		c1.166,0.132,2.299,0.588,3.437,0.93c1.354,0.407,2.765,0.205,4.146,0.409c1.092,0.162,2.071,0.396,3.026,0.941
		c0.918,0.525,2.005,0.411,3.02,0.555c0.394,0.056,0.805,0.008,1.156,0.236c1.151,0.749,2.357,1.298,3.776,1.322
		c0.407,0.007,0.808,0.256,1.162,0.561c0.546,0.47,1.188,0.747,1.953,0.797c0.705,0.046,1.428,0.198,1.893,0.858
		c0.088,0.125,0.23,0.279,0.362,0.295c1.74,0.207,3.048,1.422,4.646,1.975c1.182,0.408,2.171,1.245,3.27,1.851
		c2.259,1.246,4.508,2.59,6.496,4.217c1.542,1.261,3.236,2.336,4.664,3.777c0.791,0.799,1.733,1.563,2.635,2.295
		c1.145,0.928,2.268,1.97,3.27,3.092c1.759,1.971,3.566,3.903,5.212,5.965c0.931,1.166,1.91,2.302,2.721,3.588
		c0.547,0.868,1.047,1.833,1.809,2.579c0.226,0.221,0.479,0.464,0.584,0.747c0.633,1.717,1.93,3.032,2.757,4.616
		c0.601,1.15,1.237,2.334,1.679,3.515c0.657,1.76,1.98,3.216,2.148,5.236c0.08,0.955,1.174,1.753,1.221,2.905
		c0.032,0.81,0.364,1.519,0.827,2.199c0.501,0.735,0.706,1.61,0.705,2.497c-0.001,0.911,0.247,1.768,0.692,2.504
		c0.546,0.9,0.745,1.865,0.733,2.843c-0.019,1.624,0.264,3.17,0.81,4.68c0.466,1.289,0.627,2.616,0.665,3.979
		c0.082,2.869,0.257,5.778,0.105,8.602c-0.214,3.976,0.583,8.075-1.04,11.957c-0.68,1.627-0.208,3.513-0.765,5.159
		c-0.636,1.884-0.792,3.975-1.594,5.674c-0.917,1.942-1.207,4.051-2.165,5.984c-0.78,1.573-1.731,3.195-2.079,5.003
		c-0.059,0.306-0.167,0.643-0.36,0.874c-1.255,1.497-1.843,3.362-2.823,5.007c-0.946,1.589-1.995,3.119-3.034,4.652
		c-0.71,1.047-0.503,1.863,0.367,2.731c13.222,13.194,26.426,26.406,39.634,39.614c10.21,10.21,20.419,20.42,30.631,30.629
		c0.339,0.339,0.663,0.703,1.046,0.984c0.678,0.497,0.497,0.799,0.012,1.41c-1.661,2.096-3.789,3.717-5.567,5.695
		c-1.645,1.831-3.627,3.357-5.306,5.161c-1.097,1.178-2.248,2.292-3.39,3.42c-1.182,1.169-2.394,2.306-3.578,3.473
		c-0.305,0.3-0.501,0.252-0.785-0.033c-4.749-4.758-9.507-9.506-14.262-14.258c-4.96-4.958-9.918-9.918-14.877-14.877
		c-5.188-5.188-10.378-10.377-15.566-15.565c-8.76-8.761-17.522-17.518-26.277-26.282c-1.798-1.8-2.589-1.713-4.844,0.205
		c-0.823,0.7-1.827,1.112-2.712,1.649c-1.139,0.692-2.281,1.516-3.604,1.932c-0.632,0.198-1.348,0.305-1.674,1.031
		c-0.044,0.099-0.167,0.23-0.257,0.232c-1.779,0.041-2.943,1.632-4.672,1.837c-0.648,0.076-1.332,0.242-1.784,0.85
		c-0.133,0.178-0.399,0.379-0.595,0.369c-2.477-0.119-4.313,1.955-6.812,1.905c-1.329-0.026-2.449,1.057-3.844,1.215
		c-5.076,0.576-10.026,2.106-15.244,1.65c-2.937-0.258-5.916-0.057-8.875-0.043c-2.285,0.01-4.52-0.186-6.658-1.11
		c-1.458-0.632-3.096-0.116-4.598-0.569c-0.037-0.012-0.088,0.012-0.118-0.006c-2.188-1.256-4.901-0.92-7.038-2.326
		c-0.033-0.022-0.068-0.055-0.104-0.058c-2.174-0.143-3.87-1.771-6.036-1.943c-0.155-0.013-0.366-0.026-0.451-0.126
		c-1.078-1.26-2.846-1.242-4.097-2.278c-0.999-0.827-2.396-1.095-3.549-1.822c-1.441-0.91-2.846-1.897-4.327-2.726
		c-1.958-1.095-3.695-2.494-5.49-3.792c-0.855-0.619-1.85-1.223-2.478-2.187c-0.474-0.728-1.272-1.185-1.918-1.709
		c-2.161-1.753-3.948-3.825-5.825-5.85c-1.874-2.02-3.782-4.04-5.263-6.317c-1.209-1.859-2.72-3.515-3.691-5.586
		c-0.579-1.236-1.468-2.451-2.146-3.69c-0.746-1.364-1.758-2.621-2.081-4.215c-0.132-0.653-0.343-1.318-0.883-1.802
		c-0.115-0.103-0.233-0.247-0.265-0.392c-0.35-1.593-1.331-2.96-1.722-4.501c-0.335-1.32-0.609-2.586-1.412-3.73
		c-0.577-0.823-0.078-1.876-0.342-2.813c-0.469-1.67-1.515-3.158-1.453-5c0.121-3.553-1.617-6.832-1.417-10.471
		c0.123-2.227-0.175-4.537-0.109-6.802c0.101-3.525,0.026-7.086,1.251-10.486c0.355-0.987,0.26-2.057,0.334-3.068
		c0.099-1.358,0.366-2.59,1.031-3.755c0.06-0.104,0.148-0.219,0.145-0.326c-0.072-2.687,1.609-4.906,1.979-7.468
		c0.073-0.503,0.214-0.898,0.55-1.276c0.232-0.261,0.481-0.613,0.501-0.938c0.114-1.862,1.304-3.314,2.022-4.898
		c0.648-1.43,1.417-2.902,2.199-4.307c0.749-1.347,1.817-2.525,2.323-4.069c0.307-0.939,1.103-1.845,1.795-2.623
		c0.9-1.011,1.516-2.189,2.318-3.249c0.838-1.108,1.685-2.176,2.686-3.156c1.289-1.262,2.367-2.735,3.606-4.051
		c1.103-1.17,2.28-2.272,3.462-3.364c1.52-1.404,3.041-2.81,4.631-4.129c0.818-0.679,1.746-1.24,2.624-1.84
		c1.194-0.816,2.266-1.825,3.559-2.479c1.403-0.71,2.682-1.627,4.029-2.421c1.373-0.81,2.964-1.224,4.17-2.318
		c0.242-0.22,0.543-0.308,0.867-0.371c0.941-0.186,1.892-0.369,2.525-1.206c0.023-0.031,0.062-0.069,0.095-0.07
		c1.994-0.075,3.429-1.783,5.434-1.851c0.468-0.016,1.065-0.052,1.371-0.332c1.37-1.253,3.102-1.058,4.717-1.343
		c0.351-0.062,0.745-0.113,1.023-0.307c1.499-1.043,3.226-1.05,4.927-1.106c1.211-0.04,2.344-0.307,3.483-0.698
		c1.901-0.654,3.905-0.68,5.887-0.746C77.112-0.002,78.673,0.04,80.907,0.04z M80.196,133.482c29.926-0.45,52.68-23.239,53.152-52.3
		c0.497-30.524-23.303-53.516-51.987-54.062c-31.021-0.59-54.003,23.835-54.286,52.278
		C26.769,110.346,50.861,133.171,80.196,133.482z"/>
</g>
</svg>
