<?xml version="1.0" encoding="utf-8"?>
<!-- Generator: Adobe Illustrator 16.0.0, SVG Export Plug-In . SVG Version: 6.00 Build 0)  -->
<!DOCTYPE svg PUBLIC "-//W3C//DTD SVG 1.1//EN" "http://www.w3.org/Graphics/SVG/1.1/DTD/svg11.dtd">
<svg version="1.1" id="Layer_1" xmlns="http://www.w3.org/2000/svg" xmlns:xlink="http://www.w3.org/1999/xlink" x="0px" y="0px"
	 width="1190.55px" height="841.89px" viewBox="0 0 1190.55 841.89" enable-background="new 0 0 1190.55 841.89"
	 xml:space="preserve">
<path fill="#FFFFFF" stroke="#000000" stroke-width="3" stroke-miterlimit="10" d="M435.418,387.941
	c0,0-16.277-136.406,168.314-289.144c0,0,164.594,151.461,168.316,289.144"/>
<ellipse fill="none" stroke="#000000" stroke-width="3" stroke-miterlimit="10" cx="603.733" cy="387.941" rx="168.315" ry="38.36"/>
<polyline fill="none" stroke="#000000" stroke-miterlimit="10" points="569.326,425.5 603.732,387.941 632.699,425.5 "/>
<polyline fill="none" stroke="#000000" stroke-miterlimit="10" points="667.725,423.429 603.732,387.941 542.434,423.429 "/>
<polyline fill="none" stroke="#000000" stroke-miterlimit="10" points="702.848,418.945 603.732,387.941 510.102,418.945 "/>
<polyline fill="none" stroke="#000000" stroke-miterlimit="10" points="741.848,409.869 603.732,387.941 476.463,413.045 "/>
<polyline fill="none" stroke="#000000" stroke-miterlimit="10" points="766.787,397.496 603.732,387.941 444.645,400.495 "/>
<polyline fill="none" stroke="#000000" stroke-miterlimit="10" points="448.92,372.87 603.732,387.941 750.701,369.237 "/>
<polyline fill="none" stroke="#000000" stroke-miterlimit="10" points="528.994,353.565 603.732,387.941 674.461,353.565 "/>
<polyline fill="none" stroke="#000000" stroke-miterlimit="10" points="574.768,349.584 603.732,387.941 626.645,349.939 "/>
<path fill="none" stroke="#000000" stroke-width="3" stroke-miterlimit="10" d="M435.418,387.941"/>
<ellipse fill="#FFFFFF" stroke="#FFFFFF" stroke-width="3" stroke-miterlimit="10" cx="605.077" cy="428.465" rx="12.327" ry="6.67"/>
<g>
	<path fill="#FFFFFF" stroke="#000000" stroke-width="3" stroke-miterlimit="10" d="M592.75,394.394v17.449
		c0,0-6.092,145.963-28.963,254.076c0,0-15.066,50.887,14.343,70.977"/>
	<path fill="#FFFFFF" stroke="#000000" stroke-width="3" stroke-miterlimit="10" d="M578.13,736.896
		c0.046,0.032,0.092,0.065,0.138,0.098"/>
	
		<line fill="#FFFFFF" stroke="#000000" stroke-width="3" stroke-miterlimit="10" x1="592.75" y1="394.394" x2="592.75" y2="393.491"/>
	
		<line fill="#FFFFFF" stroke="#000000" stroke-width="3" stroke-miterlimit="10" x1="617.404" y1="394.394" x2="617.404" y2="393.491"/>
	<path fill="#FFFFFF" stroke="#000000" stroke-width="3" stroke-miterlimit="10" d="M617.404,394.394v17.449
		c0,0,6.094,145.963,28.965,254.076c0,0,15.062,50.873-14.33,70.964"/>
	<path fill="#FFFFFF" stroke="#000000" stroke-width="3" stroke-miterlimit="10" d="M632.039,736.883
		c-0.055,0.037-0.101,0.074-0.152,0.11"/>
	<path fill="#FFFFFF" stroke="#000000" stroke-width="3" stroke-miterlimit="10" d="M632.039,736.883
		c-6.617,4.16-16.24,6.779-26.961,6.779c-10.713,0-20.334-2.615-26.948-6.767"/>
	<path fill="#FFFFFF" stroke="#000000" stroke-width="3" stroke-miterlimit="10" d="M578.13,736.896
		c-2.267-1.423-4.185-3.024-5.667-4.765"/>
	<path fill="#FFFFFF" stroke="#000000" stroke-width="3" stroke-miterlimit="10" d="M632.039,736.883
		c2.262-1.418,4.176-3.016,5.655-4.757"/>
	<path fill="#FFFFFF" stroke="#000000" stroke-width="3" stroke-miterlimit="10" d="M592.75,394.394
		c0-3.563,5.52-6.452,12.326-6.452s12.328,2.889,12.328,6.452"/>
	<path fill="#FFFFFF" stroke="#000000" stroke-width="3" stroke-miterlimit="10" d="M617.381,394.798
		c0.016-0.135,0.023-0.27,0.023-0.405"/>
</g>
<polygon fill="#FFFFFF" points="594.264,396.482 594.264,400.837 615.889,406.721 615.889,394.218 594.264,394.112 "/>
</svg>
