<?xml version="1.0" encoding="utf-8"?>
<!-- Generator: Adobe Illustrator 16.0.0, SVG Export Plug-In . SVG Version: 6.00 Build 0)  -->
<!DOCTYPE svg PUBLIC "-//W3C//DTD SVG 1.1//EN" "http://www.w3.org/Graphics/SVG/1.1/DTD/svg11.dtd">
<svg version="1.1" id="Layer_1" xmlns="http://www.w3.org/2000/svg" xmlns:xlink="http://www.w3.org/1999/xlink" x="0px" y="0px"
	 width="158.692px" height="126.049px" viewBox="0 0 158.692 126.049" enable-background="new 0 0 158.692 126.049"
	 xml:space="preserve">
<g>
	<path fill-rule="evenodd" clip-rule="evenodd" fill="#E7E3D8" d="M79.346,0.024c25.918,0,51.836,0,77.755,0
		c1.563,0,1.564,0.001,1.564,1.547c0,8.12,0,16.239,0,24.359c0,1.692-0.002,1.694-1.624,1.694c-51.797,0-103.593,0-155.39,0
		c-1.621,0-1.624-0.002-1.625-1.574C0.026,17.852,0.05,9.652,0,1.453C-0.007,0.288,0.326-0.001,1.47,0
		C27.429,0.032,53.387,0.024,79.346,0.024z"/>
	<path fill-rule="evenodd" clip-rule="evenodd" fill="#E7E3D8" d="M79.364,126.026c-25.913,0-51.825,0-77.737,0
		c-1.6,0-1.6-0.001-1.6-1.632c0-8.157,0.019-16.315-0.022-24.473C0,98.788,0.309,98.403,1.488,98.403
		c51.905,0.026,103.81,0.026,155.715,0c1.179,0,1.489,0.383,1.483,1.518c-0.04,8.197-0.046,16.396,0.005,24.593
		c0.008,1.249-0.413,1.536-1.59,1.535C131.189,126.02,105.277,126.026,79.364,126.026z"/>
	<path fill-rule="evenodd" clip-rule="evenodd" fill="#E7E3D8" d="M158.661,48.746c0.002,8.479,0.005,16.959,0.004,25.439
		c0,1.625-0.063,1.682-1.696,1.682c-51.798,0.001-103.595,0.001-155.392,0c-1.548,0-1.549-0.001-1.549-1.562
		c0-8.439,0.001-16.879,0.002-25.319c0.691-0.232,1.403-0.245,2.125-0.245C54.322,48.746,106.492,48.746,158.661,48.746z"/>
	<path fill-rule="evenodd" clip-rule="evenodd" fill="#F1F1EC" d="M158.661,48.746c-52.169,0-104.338,0-156.507-0.005
		c-0.722,0-1.434,0.013-2.125,0.245c0.032-0.488,0.31-0.71,0.782-0.716c0.28-0.003,0.56-0.003,0.839-0.003
		c51.803,0,103.607-0.001,155.41,0.009C157.62,48.275,158.296,48.022,158.661,48.746z"/>
</g>
</svg>
